<svg width="72" height="70" viewBox="0 0 72 70" fill="none" xmlns="http://www.w3.org/2000/svg">
<g clip-path="url(#clip0_6_16)">
<path d="M40.5862 41.7099C40.7845 41.8421 41.1811 41.9743 41.3794 42.3048C41.9082 43.0319 42.3709 43.759 42.7014 44.5522C45.8743 51.6911 50.1709 58.1691 54.798 64.4487C55.3268 65.1758 55.3268 65.9029 54.798 66.3656C54.2691 66.8283 53.4098 66.7622 52.881 66.1012C51.8234 64.8453 50.8319 63.6555 49.9065 62.3334C46.7997 57.7724 43.5607 53.2776 41.3794 48.1878C40.7184 46.6674 40.0574 45.081 39.3964 43.5607C38.9998 42.5692 39.5286 41.7099 40.5862 41.7099ZM4.89155 54.0708C4.49494 53.7403 4.03223 53.4098 3.76783 53.0132C3.43732 52.4843 3.63563 51.9555 4.09833 51.5589C4.56104 51.2284 5.02375 50.8979 5.55256 50.7657C10.2457 49.3776 14.344 46.8657 18.3101 44.2217C20.8219 42.5692 23.2677 40.7844 25.7134 38.9997C26.5066 38.4709 27.1677 38.4048 27.6304 38.8675C28.1592 39.3963 28.0931 40.2556 27.4982 40.9166C27.1677 41.3132 26.771 41.6438 26.3744 41.9743C21.8135 45.4115 16.9881 48.7166 11.7661 51.2945C9.78304 52.286 7.6678 52.9471 5.55256 53.7403C5.42036 53.8064 5.22206 53.8064 5.02375 53.8725C5.02375 53.9386 4.95765 54.0047 4.89155 54.0708ZM15.1372 37.215H5.81697C4.62714 37.215 3.43732 37.3472 2.2475 37.3472C1.917 37.3472 1.52039 37.3472 1.18988 37.215C0.462769 37.0828 0.0661621 36.4879 0.0661621 35.8268C0.132263 35.0997 0.52887 34.7031 1.18988 34.5709C1.78479 34.4387 2.44581 34.4387 3.10682 34.4387C9.05592 34.3726 15.0711 34.3726 21.0202 34.3065C22.144 34.3065 23.2677 34.2404 24.3914 34.1743C24.8541 34.1743 25.3829 34.1082 25.8456 34.1743C26.771 34.3065 27.2999 34.7692 27.2999 35.5624C27.2999 36.3557 26.771 36.9506 25.8456 37.0167C24.127 37.1489 22.4084 37.1489 20.6897 37.215C18.8389 37.2811 16.9881 37.215 15.1372 37.215ZM70.0012 51.2284C70.0012 52.286 69.2741 52.7488 68.4809 52.4182C65.9691 51.4267 63.5233 50.3691 61.0776 49.3115C56.781 47.3946 52.5505 45.4776 48.32 43.4946C46.8658 42.8336 45.5438 41.9743 44.2218 41.181C43.4946 40.7183 43.2302 40.0573 43.5607 39.5285C43.8913 38.9997 44.6184 38.8014 45.4116 39.198C49.6421 41.181 53.8725 43.098 58.1691 45.081C61.2098 46.4691 64.2504 47.8573 67.2911 49.3115C68.0843 49.7081 68.8114 50.1708 69.5385 50.6335C69.6707 50.7657 69.869 51.0962 70.0012 51.2284ZM44.6184 30.2743C43.6269 30.2743 43.098 29.5472 43.4285 28.8201C43.5607 28.4896 43.8252 28.1591 44.1557 27.9608C48.3861 24.854 52.4844 21.7473 56.8471 18.7727C59.0945 17.2524 61.6064 16.1287 63.986 14.8067C64.2504 14.6745 64.5809 14.5423 64.9114 14.5423C65.4402 14.4762 65.969 14.6745 66.2335 15.2694C66.4979 15.8643 66.2996 16.3931 65.8369 16.7897C65.2419 17.2524 64.5809 17.7151 63.9199 18.0456C59.6233 20.0948 55.7895 22.8049 51.9556 25.6473C49.8404 27.2337 47.5929 28.6218 45.4116 30.0099C45.1472 30.1421 44.7506 30.2082 44.6184 30.2743ZM47.2624 35.8268H45.7421C44.8828 35.7607 44.354 35.298 44.354 34.5709C44.354 33.8438 44.8828 33.3811 45.7421 33.315C51.0302 32.9845 56.3183 32.654 61.6064 32.3896C64.2504 32.2574 66.8945 32.1913 69.5385 32.0591C69.869 32.0591 70.2656 31.993 70.3978 32.1913C70.7283 32.5218 71.1249 32.9845 71.1249 33.3811C71.1249 33.7777 70.6622 34.2404 70.3317 34.5048C70.0673 34.7031 69.5385 34.637 69.1419 34.7031C62.7962 35.0336 56.5166 35.298 50.237 35.6285C49.2455 35.6946 48.2539 35.8268 47.2624 35.8268ZM29.1507 26.9693C28.8863 26.771 28.4236 26.5066 28.1592 26.1761C27.6304 25.5151 27.1677 24.7879 26.771 24.0608C23.2016 18.3761 19.6982 12.6253 16.1949 6.94063C15.9304 6.54402 15.7321 6.14741 15.666 5.6847C15.5338 5.08979 15.666 4.56098 16.261 4.29658C16.8559 4.03217 17.3186 4.29658 17.6491 4.82539C20.6236 9.45247 23.5982 14.0135 26.5727 18.6405C27.8948 20.6897 29.1507 22.7388 30.4066 24.854C30.9354 25.7795 30.7371 26.5727 29.8778 26.8371C29.6795 26.9032 29.4812 26.9032 29.1507 26.9693ZM34.8354 59.1606C34.7693 54.9301 34.6371 50.6996 33.9761 46.4691C33.91 45.9403 33.91 45.4776 33.91 44.9488C33.9761 44.0895 34.3727 43.6268 34.9676 43.5607C35.6286 43.4946 36.0913 43.8912 36.2896 44.7505C37.0167 48.1217 37.4794 51.4928 37.4794 54.9301C37.4794 58.6979 37.4794 62.4656 37.4133 66.2334C37.4133 66.9605 37.2811 67.6876 37.215 68.3486C37.1489 69.0096 36.6201 69.4062 36.0913 69.4062C35.6947 69.4062 35.232 68.9436 35.0337 68.613C34.8354 68.2825 34.8354 67.7537 34.7693 67.3571C34.8354 64.5809 34.8354 61.8707 34.8354 59.1606ZM19.6321 63.7215C19.6982 63.5893 19.6982 63.2588 19.8304 62.9944L25.3829 50.6996C26.3744 48.5844 27.2999 46.403 28.2914 44.2878C28.5558 43.759 28.8202 43.2302 29.1507 42.7675C29.4812 42.2387 30.01 42.1065 30.5388 42.3048C31.1337 42.5031 31.3981 42.9658 31.332 43.5607C31.2659 43.9573 31.1998 44.2878 31.0676 44.6844C29.2829 48.7166 27.4321 52.6827 25.6473 56.7148C24.5897 59.0945 23.5321 61.5402 22.4745 63.9199C22.4084 64.1182 22.2762 64.3165 22.2101 64.5809C21.8796 65.2419 21.3507 65.5063 20.6236 65.308C19.8965 65.1097 19.6321 64.5148 19.6321 63.7215ZM35.4303 15.5999V23.6642C35.3642 24.6557 34.9015 25.2507 34.1744 25.1846C33.5134 25.1846 32.9846 24.5896 32.9846 23.6642L32.7863 12.0304C32.7201 9.45247 32.4557 6.87452 32.3235 4.29658C32.2574 3.37116 32.2574 2.44574 32.2574 1.52033C32.2574 0.661012 32.8524 0 33.4473 0C34.0422 0 34.6371 0.594911 34.7032 1.45423C35.0998 6.14741 35.4303 10.8406 35.7608 15.5999H35.4303ZM3.10682 18.0456C3.50342 18.1778 3.83393 18.2439 4.09833 18.4422C9.32033 21.8795 15.2033 24.1269 20.6897 27.0354C22.2101 27.8947 23.7304 28.754 25.2507 29.6794C25.5812 29.8777 25.9117 30.2082 26.11 30.5388C26.3744 31.0015 26.3744 31.4642 25.9117 31.8608C25.449 32.3235 24.9202 32.1913 24.3914 31.9269L19.6321 29.3489C15.1372 27.1015 10.5763 24.854 6.14747 22.5405C4.82545 21.8795 3.70173 20.8219 2.51191 19.8965C2.2475 19.6982 2.1153 19.1032 2.2475 18.7727C2.3136 18.4422 2.77631 18.2439 3.10682 18.0456ZM50.3692 4.49488C50.0387 5.3542 49.8404 6.14741 49.5099 6.87452C46.9319 12.6914 44.354 18.5083 41.7099 24.2591L41.3133 25.0524C40.9167 25.7134 40.1896 25.9778 39.5947 25.7134C38.9998 25.449 38.6693 24.6557 38.8676 23.9286C38.9998 23.532 39.1981 23.1354 39.3964 22.7388C41.7099 17.649 43.9574 12.5592 46.2709 7.53554C46.8658 6.27961 47.659 5.08979 48.3861 3.89997C48.6505 3.43726 49.1132 3.17286 49.6421 3.50336C49.9726 3.76777 50.1709 4.16438 50.3692 4.49488Z" fill="#EEEEFF"/>
</g>
<defs>
<clipPath id="clip0_6_16">
<rect width="71.1249" height="69.4062" fill="white"/>
</clipPath>
</defs>
</svg>
