<svg width="222" height="20" viewBox="0 0 222 20" fill="none" xmlns="http://www.w3.org/2000/svg">
<path d="M9.30644 10.6701L7.63358 10.2984H7.07596C6.1466 9.92664 6.33247 10.1125 7.81945 11.0419L8.1912 14.2017V14.0159L7.07596 15.8746L6.70421 16.2463L8.1912 15.8746L10.6076 15.317L14.8826 14.5735L25.1057 13.0865C45.5259 10.5686 66.0598 9.07971 86.6297 8.62553C130.304 7.87492 173.975 10.2976 217.299 15.8746C219.529 16.0605 221.574 13.83 221.574 11.5995C221.574 9.18315 219.715 7.69616 217.299 7.32441C186.557 3.66341 155.675 1.3069 124.734 0.261232C93.8788 -0.482261 63.0238 0.261232 32.5406 3.79282C24.1763 4.72219 15.812 5.65156 7.63358 7.51029C4.28786 8.25378 -1.10246 9.74077 0.198652 14.3876C1.31389 18.2909 6.1466 18.8486 9.30644 19.2203C11.7228 19.4062 13.5815 16.9898 13.5815 14.9452C13.5815 12.5289 11.7228 11.0419 9.30644 10.6701Z" fill="#A4FFC5"/>
</svg>
